<svg width="34" height="30" viewBox="0 0 34 30" fill="none" xmlns="http://www.w3.org/2000/svg">
<path d="M32.6816 5.91699L28.9053 20.9727H9L5.22266 5.91699H32.6816Z" stroke="#111827" stroke-width="0.5"/>
<path d="M1 1H3.73194L4.90277 5.66667M4.90277 5.66667L8.80553 21.2222H29.0999L33.0027 5.66667H4.90277Z" stroke="#111827" stroke-width="2" stroke-linecap="round" stroke-linejoin="round"/>
<path d="M8.8026 28.9997C10.0959 28.9997 11.1443 27.955 11.1443 26.6663C11.1443 25.3777 10.0959 24.333 8.8026 24.333C7.50933 24.333 6.46094 25.3777 6.46094 26.6663C6.46094 27.955 7.50933 28.9997 8.8026 28.9997Z" stroke="#111827" stroke-width="2" stroke-linecap="round" stroke-linejoin="round"/>
<path d="M29.0995 28.9997C30.3927 28.9997 31.4411 27.955 31.4411 26.6663C31.4411 25.3777 30.3927 24.333 29.0995 24.333C27.8062 24.333 26.7578 25.3777 26.7578 26.6663C26.7578 27.955 27.8062 28.9997 29.0995 28.9997Z" stroke="#111827" stroke-width="2" stroke-linecap="round" stroke-linejoin="round"/>
<path d="M15.8281 13.4441H22.0726M18.9503 16.5552V10.333" stroke="#111827" stroke-width="2" stroke-linecap="round" stroke-linejoin="round"/>
</svg>
