<svg width="120" height="40" viewBox="0 0 120 40" fill="none" xmlns="http://www.w3.org/2000/svg">
<path d="M12 25.25L5.8125 29L7.45312 21.9688L2.01562 17.2344L9.1875 16.625L12 10.0156L14.8125 16.625L21.9844 17.2344L16.5469 21.9688L18.1875 29L12 25.25Z" fill="#D4A017"/>
<path d="M36 25.25L29.8125 29L31.4531 21.9688L26.0156 17.2344L33.1875 16.625L36 10.0156L38.8125 16.625L45.9844 17.2344L40.5469 21.9688L42.1875 29L36 25.25Z" fill="#D4A017"/>
<path d="M60 25.25L53.8125 29L55.4531 21.9688L50.0156 17.2344L57.1875 16.625L60 10.0156L62.8125 16.625L69.9844 17.2344L64.5469 21.9688L66.1875 29L60 25.25Z" fill="#D4A017"/>
<path d="M84 25.25L77.8125 29L79.4531 21.9688L74.0156 17.2344L81.1875 16.625L84 10.0156L86.8125 16.625L93.9844 17.2344L88.5469 21.9688L90.1875 29L84 25.25Z" fill="#D4A017"/>
<path d="M108 23.4219L111.75 25.6719L110.766 21.4062L114.094 18.5L109.688 18.125L108 14.0938V23.4219ZM117.984 17.2344L112.547 21.9688L114.188 29L108 25.25L101.812 29L103.453 21.9688L98.0156 17.2344L105.188 16.625L108 10.0156L110.812 16.625L117.984 17.2344Z" fill="#D4A017"/>
</svg>
