<svg width="40" height="40" viewBox="0 0 40 40" fill="none" xmlns="http://www.w3.org/2000/svg">
<path d="M2.5 5H5.41667L6.66667 10M6.66667 10L10.8333 26.6667H32.5L36.6667 10H6.66667Z" stroke="black" stroke-width="2" stroke-linecap="round" stroke-linejoin="round"/>
<path d="M10.834 35C12.2147 35 13.334 33.8807 13.334 32.5C13.334 31.1193 12.2147 30 10.834 30C9.45327 30 8.33398 31.1193 8.33398 32.5C8.33398 33.8807 9.45327 35 10.834 35Z" stroke="black" stroke-width="2" stroke-linecap="round" stroke-linejoin="round"/>
<path d="M32.5 35C33.8807 35 35 33.8807 35 32.5C35 31.1193 33.8807 30 32.5 30C31.1193 30 30 31.1193 30 32.5C30 33.8807 31.1193 35 32.5 35Z" stroke="black" stroke-width="2" stroke-linecap="round" stroke-linejoin="round"/>
<path d="M18.334 18.3333H25.0007M21.6673 21.6667V15" stroke="black" stroke-width="2" stroke-linecap="round" stroke-linejoin="round"/>
</svg>
