<svg width="40" height="40" viewBox="0 0 40 40" fill="none" xmlns="http://www.w3.org/2000/svg">
<path d="M21.3325 0.332858L34.4575 4.53286C35.3409 4.81534 36.1117 5.37125 36.6585 6.12033C37.2054 6.8694 37.5001 7.7729 37.5 8.70036V17.5004C37.5 21.4154 36.7 25.4554 34.2425 29.2054C31.785 32.9504 27.78 36.2379 21.6625 38.8429C21.1367 39.0663 20.5713 39.1815 20 39.1815C19.4287 39.1815 18.8633 39.0663 18.3375 38.8429C12.22 36.2379 8.215 32.9504 5.7575 29.2054C3.3 25.4554 2.5 21.4154 2.5 17.5004V8.70036C2.49992 7.7729 2.79459 6.8694 3.34146 6.12033C3.88833 5.37125 4.6591 4.81534 5.5425 4.53286L18.6675 0.332858C19.5342 0.0557139 20.4658 0.0557139 21.3325 0.332858ZM19.8075 3.90536L6.6825 8.10536C6.5567 8.1455 6.44684 8.22446 6.36869 8.3309C6.29054 8.43735 6.24812 8.56581 6.2475 8.69786V17.5004C6.2475 20.9004 6.935 24.1654 8.89 27.1479C10.85 30.1329 14.1925 33.0029 19.805 35.3929C19.866 35.4183 19.9314 35.4314 19.9975 35.4314C20.0636 35.4314 20.129 35.4183 20.19 35.3929C25.8025 33.0004 29.145 30.1354 31.105 27.1504C33.065 24.1654 33.75 20.8954 33.75 17.5004V8.70036C33.7499 8.56788 33.7077 8.43886 33.6295 8.33191C33.5514 8.22497 33.4412 8.14563 33.315 8.10536L20.19 3.90536C20.0656 3.86538 19.9319 3.86538 19.8075 3.90536ZM23.75 16.2504C23.75 17.5904 23.035 18.8304 21.875 19.5004V25.6254C21.875 26.1226 21.6775 26.5996 21.3258 26.9512C20.9742 27.3028 20.4973 27.5004 20 27.5004C19.5027 27.5004 19.0258 27.3028 18.6742 26.9512C18.3225 26.5996 18.125 26.1226 18.125 25.6254V19.5004C17.555 19.1713 17.0817 18.698 16.7526 18.128C16.4234 17.5581 16.2501 16.9115 16.25 16.2534C16.2499 15.5952 16.423 14.9486 16.752 14.3785C17.0809 13.8085 17.5541 13.335 18.124 13.0058C18.6938 12.6765 19.3403 12.503 19.9985 12.5028C20.6567 12.5025 21.3033 12.6755 21.8734 13.0043C22.4436 13.3331 22.9171 13.8061 23.2465 14.3759C23.5759 14.9457 23.7496 15.5922 23.75 16.2504Z" fill="#800000"/>
</svg>
