<svg width="25" height="28" viewBox="0 0 25 28" fill="none" xmlns="http://www.w3.org/2000/svg">
<path d="M19.4006 22.75L13.2756 16.625C12.7895 17.0139 12.2305 17.3218 11.5985 17.5486C10.9666 17.7755 10.2941 17.8889 9.58116 17.8889C7.81496 17.8889 6.32017 17.2772 5.09679 16.0538C3.87341 14.8304 3.26172 13.3356 3.26172 11.5694C3.26172 9.80324 3.87341 8.30845 5.09679 7.08507C6.32017 5.86169 7.81496 5.25 9.58116 5.25C11.3474 5.25 12.8422 5.86169 14.0655 7.08507C15.2889 8.30845 15.9006 9.80324 15.9006 11.5694C15.9006 12.2824 15.7872 12.9549 15.5603 13.5868C15.3335 14.2188 15.0256 14.7778 14.6367 15.2639L20.7617 21.3889L19.4006 22.75ZM9.58116 15.9444C10.7964 15.9444 11.8294 15.5191 12.6801 14.6684C13.5308 13.8177 13.9562 12.7847 13.9562 11.5694C13.9562 10.3542 13.5308 9.32118 12.6801 8.47049C11.8294 7.61979 10.7964 7.19444 9.58116 7.19444C8.36589 7.19444 7.3329 7.61979 6.4822 8.47049C5.63151 9.32118 5.20616 10.3542 5.20616 11.5694C5.20616 12.7847 5.63151 13.8177 6.4822 14.6684C7.3329 15.5191 8.36589 15.9444 9.58116 15.9444Z" fill="#707070"/>
</svg>
