<svg width="40" height="40" viewBox="0 0 40 40" fill="none" xmlns="http://www.w3.org/2000/svg">
<path d="M20.2261 3.74956C11.0871 3.62612 3.62612 11.0871 3.74956 20.2261C3.87143 28.991 11.0082 36.1277 19.773 36.2496C28.9136 36.3746 36.373 28.9136 36.248 19.7746C36.1277 11.0082 28.991 3.87143 20.2261 3.74956ZM30.1027 29.316C30.0716 29.3496 30.0334 29.376 29.991 29.3933C29.9485 29.4105 29.9028 29.4183 29.857 29.4159C29.8112 29.4135 29.7665 29.4011 29.7261 29.3795C29.6856 29.3579 29.6504 29.3277 29.623 29.291C28.9242 28.3767 28.0684 27.594 27.0956 26.9792C25.1066 25.7027 22.5863 24.9996 19.9996 24.9996C17.4128 24.9996 14.8925 25.7027 12.9035 26.9792C11.9307 27.5936 11.0749 28.3761 10.3761 29.2902C10.3487 29.3269 10.3135 29.3571 10.273 29.3787C10.2326 29.4003 10.1879 29.4127 10.1421 29.4151C10.0964 29.4175 10.0506 29.4098 10.0082 29.3925C9.96569 29.3752 9.92755 29.3488 9.89643 29.3152C7.60399 26.8405 6.30541 23.6068 6.24956 20.2339C6.12221 12.6316 12.3605 6.26831 19.966 6.24956C27.5714 6.23081 33.7496 12.4066 33.7496 19.9996C33.7522 23.4538 32.4496 26.7814 30.1027 29.316Z" fill="black"/>
<path d="M19.9991 11.25C18.4585 11.25 17.0655 11.8273 16.0757 12.8766C15.0858 13.9258 14.5913 15.3766 14.703 16.9336C14.9296 20 17.3054 22.5 19.9991 22.5C22.6929 22.5 25.064 20 25.2952 16.9344C25.4108 15.3922 24.9202 13.9547 23.914 12.8859C22.9202 11.8313 21.5296 11.25 19.9991 11.25Z" fill="black"/>
</svg>
